<svg width="118" height="118" viewBox="0 0 118 118" fill="none" xmlns="http://www.w3.org/2000/svg">
<circle cx="58.55" cy="58.55" r="58.55" fill="white"/>
<path d="M58.54 40.32V76.77C56.1108 76.8269 53.6946 76.3976 51.4337 75.5073C49.1727 74.617 47.1126 73.2836 45.3744 71.5856C43.6361 69.8876 42.2549 67.8593 41.3119 65.6198C40.3689 63.3803 39.8831 60.9749 39.8831 58.545C39.8831 56.1151 40.3689 53.7097 41.3119 51.4702C42.2549 49.2307 43.6361 47.2024 45.3744 45.5044C47.1126 43.8064 49.1727 42.4731 51.4337 41.5827C53.6946 40.6924 56.1108 40.2631 58.54 40.32Z" fill="#51BFFA"/>
<path d="M58.54 0C46.9595 0.00197856 35.6396 3.43806 26.012 9.87371C16.3844 16.3093 8.88148 25.4555 4.4521 36.1554C0.0227075 46.8554 -1.13418 58.6285 1.12773 69.986C3.38965 81.3435 8.96877 91.7751 17.1595 99.9617C25.3503 108.148 35.7848 113.722 47.1434 115.978C58.5021 118.234 70.2746 117.071 80.9723 112.636C91.67 108.202 100.812 100.694 107.243 91.063C113.674 81.4321 117.104 70.1105 117.1 58.53C117.092 43.0041 110.919 28.1169 99.9376 17.1412C88.9563 6.16558 74.0659 -2.03735e-06 58.54 0ZM58.54 76.77V101.3C58.543 102.275 58.3464 103.241 57.9623 104.137C57.5782 105.034 57.0148 105.842 56.3067 106.513C55.5985 107.184 54.7607 107.702 53.8446 108.037C52.9286 108.372 51.9537 108.516 50.98 108.46L50.4 108.38C48.0884 108.012 45.8083 107.467 43.58 106.75C42.77 106.52 42.01 106.25 41.22 105.97C40.43 105.69 39.7 105.39 38.94 105.05C38.18 104.71 37.49 104.44 36.81 104.05L36.66 103.97C35.2174 103.291 33.8151 102.53 32.46 101.69C30.99 100.811 29.5711 99.8496 28.21 98.81C27.03 97.91 25.9 97 24.82 96.03C24.3 95.55 23.77 95.03 23.25 94.53C22.73 94.03 22.25 93.53 21.78 93.03L21.65 93C21.31 92.63 20.97 92.26 20.65 91.89C20.33 91.52 19.92 91.05 19.58 90.63C19.24 90.21 18.69 89.53 18.27 88.98C17.51 87.98 16.77 86.91 16.09 85.83C15.75 85.33 15.43 84.83 15.09 84.29C13.8388 82.196 12.7489 80.0097 11.83 77.75C11.57 77.15 11.31 76.52 11.1 75.89C10.5783 74.5083 10.131 73.0996 9.76002 71.67C9.66002 71.3 9.55002 70.93 9.47002 70.54C9.21002 69.54 8.98002 68.41 8.82002 67.34C8.71002 66.84 8.63002 66.34 8.56002 65.82C8.40002 64.66 8.27002 63.51 8.19002 62.35C8.14002 61.85 8.11002 61.35 8.08002 60.86C8.08002 60.1 8.03002 59.31 8.03002 58.52C8.03002 57.73 8.03002 56.95 8.08002 56.19C8.08002 55.69 8.14002 55.19 8.19002 54.69C8.27002 53.54 8.40002 52.38 8.56002 51.23C8.63002 50.73 8.71002 50.23 8.82002 49.71C8.83708 49.5043 8.87052 49.3004 8.92002 49.1C9.00002 48.63 9.08002 48.19 9.19002 47.74C9.30002 47.29 9.37002 46.93 9.47002 46.51C9.57002 46.09 9.66002 45.75 9.76002 45.38C10.1296 43.9467 10.5769 42.5346 11.1 41.15C11.31 40.52 11.57 39.89 11.83 39.29C12.7531 37.0355 13.8428 34.8528 15.09 32.76C15.4 32.23 15.72 31.71 16.09 31.21C16.77 30.13 17.51 29.09 18.27 28.06C18.69 27.51 19.13 26.93 19.58 26.41C20.03 25.89 20.29 25.57 20.65 25.15C21.01 24.73 21.31 24.42 21.65 24.05C21.65 24.05 21.65 24.05 21.73 23.97C22.2 23.47 22.67 22.97 23.2 22.47C25.8022 19.9256 28.6684 17.6662 31.75 15.73C32.2 15.44 32.64 15.18 33.09 14.92C33.54 14.66 34.09 14.31 34.66 14.03C35.23 13.75 35.66 13.5 36.19 13.24L37.02 12.85C37.55 12.58 38.1 12.35 38.68 12.08C38.78 12.08 38.89 12.01 38.99 11.98C39.7 11.66 40.44 11.38 41.17 11.11C41.9 10.84 42.72 10.56 43.53 10.3C45.7629 9.60708 48.0419 9.07242 50.35 8.7L50.98 8.63C51.9578 8.56696 52.9381 8.70555 53.86 9.03717C54.782 9.36878 55.626 9.88635 56.3396 10.5578C57.0532 11.2291 57.6212 12.04 58.0083 12.9401C58.3954 13.8402 58.5934 14.8102 58.59 15.79V40.32C61.0193 40.2631 63.4354 40.6924 65.6964 41.5827C67.9573 42.473 70.0175 43.8064 71.7557 45.5044C73.4939 47.2024 74.8751 49.2307 75.8181 51.4702C76.7612 53.7097 77.247 56.1151 77.247 58.545C77.247 60.9749 76.7612 63.3803 75.8181 65.6198C74.8751 67.8593 73.4939 69.8876 71.7557 71.5856C70.0175 73.2836 67.9573 74.6169 65.6964 75.5073C63.4354 76.3976 61.0193 76.8269 58.59 76.77H58.54Z" fill="black"/>
</svg>
