<svg width="180" height="180" viewBox="0 0 180 180" fill="none" xmlns="http://www.w3.org/2000/svg">
<rect width="180" height="180" fill="white"/>
<g clip-path="url(#clip0_217_7)">
<path d="M89.55 148.1C121.886 148.1 148.1 121.886 148.1 89.55C148.1 57.2137 121.886 31 89.55 31C57.2137 31 31 57.2137 31 89.55C31 121.886 57.2137 148.1 89.55 148.1Z" fill="white"/>
<path d="M89.5402 71.3204V107.77C87.111 107.827 84.6948 107.398 82.4339 106.508C80.1729 105.617 78.1128 104.284 76.3746 102.586C74.6363 100.888 73.2551 98.8597 72.3121 96.6202C71.3691 94.3807 70.8833 91.9753 70.8833 89.5454C70.8833 87.1155 71.3691 84.7101 72.3121 82.4706C73.2551 80.2311 74.6363 78.2028 76.3746 76.5048C78.1128 74.8068 80.1729 73.4735 82.4339 72.5831C84.6948 71.6928 87.111 71.2635 89.5402 71.3204Z" fill="#51BFFA"/>
<path d="M89.54 31C77.9595 31.002 66.6396 34.4381 57.012 40.8737C47.3844 47.3093 39.8815 56.4555 35.4521 67.1554C31.0227 77.8554 29.8658 89.6285 32.1277 100.986C34.3896 112.344 39.9688 122.775 48.1595 130.962C56.3503 139.148 66.7848 144.722 78.1434 146.978C89.5021 149.234 101.275 148.071 111.972 143.636C122.67 139.202 131.812 131.694 138.243 122.063C144.674 112.432 148.104 101.11 148.1 89.53C148.092 74.0041 141.919 59.1169 130.938 48.1412C119.956 37.1656 105.066 31 89.54 31ZM89.54 107.77V132.3C89.543 133.275 89.3464 134.241 88.9623 135.137C88.5782 136.034 88.0148 136.842 87.3067 137.513C86.5985 138.184 85.7607 138.702 84.8446 139.037C83.9286 139.372 82.9537 139.516 81.98 139.46L81.4 139.38C79.0884 139.012 76.8083 138.467 74.58 137.75C73.77 137.52 73.01 137.25 72.22 136.97C71.43 136.69 70.7 136.39 69.94 136.05C69.18 135.71 68.49 135.44 67.81 135.05L67.66 134.97C66.2174 134.291 64.8151 133.53 63.46 132.69C61.99 131.811 60.5711 130.85 59.21 129.81C58.03 128.91 56.9 128 55.82 127.03C55.3 126.55 54.77 126.03 54.25 125.53C53.73 125.03 53.25 124.53 52.78 124.03L52.65 124C52.31 123.63 51.97 123.26 51.65 122.89C51.33 122.52 50.92 122.05 50.58 121.63C50.24 121.21 49.69 120.53 49.27 119.98C48.51 118.98 47.77 117.91 47.09 116.83C46.75 116.33 46.43 115.83 46.09 115.29C44.8388 113.196 43.7489 111.01 42.83 108.75C42.57 108.15 42.31 107.52 42.1 106.89C41.5783 105.508 41.131 104.1 40.76 102.67C40.66 102.3 40.55 101.93 40.47 101.54C40.21 100.54 39.98 99.41 39.82 98.34C39.71 97.84 39.63 97.34 39.56 96.82C39.4 95.66 39.27 94.51 39.19 93.35C39.14 92.85 39.11 92.35 39.08 91.86C39.08 91.1 39.03 90.31 39.03 89.52C39.03 88.73 39.03 87.95 39.08 87.19C39.08 86.69 39.14 86.19 39.19 85.69C39.27 84.54 39.4 83.38 39.56 82.23C39.63 81.73 39.71 81.23 39.82 80.71C39.8371 80.5043 39.8705 80.3004 39.92 80.1C40 79.63 40.08 79.19 40.19 78.74C40.3 78.29 40.37 77.93 40.47 77.51C40.57 77.09 40.66 76.75 40.76 76.38C41.1296 74.9467 41.5769 73.5346 42.1 72.15C42.31 71.52 42.57 70.89 42.83 70.29C43.7531 68.0355 44.8428 65.8528 46.09 63.76C46.4 63.23 46.72 62.71 47.09 62.21C47.77 61.13 48.51 60.09 49.27 59.06C49.69 58.51 50.13 57.93 50.58 57.41C51.03 56.89 51.29 56.57 51.65 56.15C52.01 55.73 52.31 55.42 52.65 55.05C52.65 55.05 52.65 55.05 52.73 54.97C53.2 54.47 53.67 53.97 54.2 53.47C56.8022 50.9256 59.6684 48.6662 62.75 46.73C63.2 46.44 63.64 46.18 64.09 45.92C64.54 45.66 65.09 45.31 65.66 45.03C66.23 44.75 66.66 44.5 67.19 44.24L68.02 43.85C68.55 43.58 69.1 43.35 69.68 43.08C69.78 43.08 69.89 43.01 69.99 42.98C70.7 42.66 71.44 42.38 72.17 42.11C72.9 41.84 73.72 41.56 74.53 41.3C76.7629 40.6071 79.0419 40.0724 81.35 39.7L81.98 39.63C82.9578 39.567 83.9381 39.7056 84.86 40.0372C85.782 40.3688 86.626 40.8864 87.3396 41.5578C88.0532 42.2291 88.6212 43.04 89.0083 43.9401C89.3954 44.8402 89.5934 45.8102 89.59 46.79V71.32C92.0193 71.2631 94.4354 71.6924 96.6964 72.5827C98.9573 73.473 101.017 74.8064 102.756 76.5044C104.494 78.2024 105.875 80.2307 106.818 82.4702C107.761 84.7097 108.247 87.1151 108.247 89.545C108.247 91.9749 107.761 94.3803 106.818 96.6198C105.875 98.8593 104.494 100.888 102.756 102.586C101.017 104.284 98.9573 105.617 96.6964 106.507C94.4354 107.398 92.0193 107.827 89.59 107.77H89.54Z" fill="black"/>
</g>
<defs>
<clipPath id="clip0_217_7">
<rect width="118" height="118" fill="white" transform="translate(31 31)"/>
</clipPath>
</defs>
</svg>
